<svg width="353" height="54" viewBox="0 0 353 54" fill="none" xmlns="http://www.w3.org/2000/svg">
<path d="M350.261 23.9429C350.261 28.0051 350.067 32.3575 349.68 37.0001C349.326 41.6749 348.874 45.2535 348.326 47.736C347.714 50.6376 346.263 52.0884 343.974 52.0884C339.783 52.0884 337.687 49.2835 337.687 43.6737C337.687 42.1262 338.106 40.6271 338.944 39.1763C339.815 37.7255 340.782 37.0001 341.846 37.0001C342.942 37.0001 343.49 37.4837 343.49 38.4509C343.49 38.6765 343.264 38.9506 342.813 39.273C341.33 40.3047 340.589 41.7393 340.589 43.577C340.589 45.4469 340.814 46.8494 341.266 47.7843C341.749 48.7193 342.652 49.1868 343.974 49.1868C344.748 49.1868 345.279 48.4453 345.57 46.9622C346.182 44.0929 346.682 39.547 347.069 33.3247C347.198 31.3581 347.246 30.1652 347.214 29.7461C346.537 30.7133 346.037 31.3258 345.715 31.5837C345.425 31.8094 345.118 32.0512 344.796 32.3091C344.506 32.5348 344.216 32.7283 343.925 32.8895C343.667 33.0184 343.329 33.1796 342.91 33.3731C342.523 33.5343 342.12 33.6632 341.701 33.7599C340.734 33.9856 339.718 34.0985 338.654 34.0985C336.945 34.0985 335.72 33.1313 334.979 31.1969C333.979 28.6499 333.286 25.4259 332.899 21.5249C332.867 21.3314 332.851 21.0735 332.851 20.7511C332.851 19.9773 333.302 19.5905 334.205 19.5905C335.14 19.5905 335.656 20.0741 335.753 21.0413C335.978 23.1691 336.349 25.3937 336.865 27.7149C337.413 30.0362 338.009 31.1969 338.654 31.1969C340.75 31.1969 342.378 30.6649 343.539 29.601C344.699 28.5371 345.973 26.651 347.359 23.9429C347.746 22.9757 348.229 22.4921 348.81 22.4921C349.777 22.4921 350.261 22.9757 350.261 23.9429Z" fill="black"/>
<path d="M312.565 18.333C312.533 17.8816 312.517 17.1724 312.517 16.2052C312.517 12.7232 312.839 9.04787 313.484 5.17907C313.645 4.21187 314.129 3.72827 314.935 3.72827C315.902 3.72827 316.386 4.19575 316.386 5.13071C316.386 5.29191 316.354 5.56595 316.289 5.95283C315.709 9.43475 315.419 12.8522 315.419 16.2052V17.801C319.642 17.0595 322.705 16.6888 324.607 16.6888C325.574 16.6888 326.058 17.1724 326.058 18.1396C326.058 19.1068 325.574 19.5904 324.607 19.5904C322.737 19.5904 319.723 19.9611 315.564 20.7026C316.241 29.6331 319.094 34.0984 324.124 34.0984C325.252 34.0984 326.654 33.8566 328.331 33.373C330.007 32.8894 330.894 32.6476 330.991 32.6476C331.958 32.6476 332.441 33.1312 332.441 34.0984C332.441 34.8076 331.958 35.3235 330.991 35.6459C328.282 36.5486 325.993 37 324.124 37C321.125 37 318.594 35.7748 316.531 33.3246C314.468 30.8744 313.194 26.8444 312.711 21.2346L311.598 21.4764C311.308 21.5086 311.131 21.5248 311.066 21.5248C310.099 21.5248 309.615 21.0412 309.615 20.074C309.615 19.3002 310.099 18.8166 311.066 18.6232C311.679 18.4942 312.179 18.3975 312.565 18.333Z" fill="black"/>
<path d="M298.545 13.0134C299.061 13.0134 299.593 13.2552 300.141 13.7388C300.689 14.1902 300.963 14.6738 300.963 15.1896C300.963 15.6732 300.737 16.044 300.286 16.3019C299.867 16.5598 299.399 16.6888 298.883 16.6888C298.368 16.6888 297.932 16.4631 297.578 16.0117C297.255 15.5281 297.094 15.0123 297.094 14.4642C297.094 13.497 297.578 13.0134 298.545 13.0134ZM294.192 31.0033C292.387 32.9377 290.549 34.3241 288.679 35.1623C288.099 35.4202 287.632 35.5492 287.277 35.5492C286.31 35.5492 285.826 35.0656 285.826 34.0984C285.826 33.4858 286.31 32.9861 287.277 32.5992C287.793 32.4058 288.47 32.0189 289.308 31.4386C290.179 30.8583 290.759 30.423 291.049 30.1329C291.339 29.8427 291.839 29.3107 292.548 28.537C293.29 27.7632 293.87 27.1829 294.289 26.796C294.708 26.3769 295.273 25.9578 295.982 25.5387C296.723 25.1195 297.4 24.91 298.013 24.91C299.27 24.91 300.237 25.3613 300.914 26.2641C301.592 27.1668 301.995 28.1662 302.123 29.2624C302.478 32.164 303.042 33.6148 303.816 33.6148C304.429 33.6148 305.219 33.4536 306.186 33.1312C307.153 32.8088 307.685 32.6476 307.782 32.6476C308.749 32.6476 309.232 33.1312 309.232 34.0984C309.232 34.8077 308.749 35.3235 307.782 35.6459C306.041 36.2262 304.622 36.5164 303.526 36.5164C302.462 36.5164 301.592 36.065 300.914 35.1623C300.237 34.2596 299.834 33.2602 299.705 32.164C299.351 29.2624 298.787 27.8116 298.013 27.8116C297.594 27.8116 297.11 28.0856 296.562 28.6337C296.046 29.1495 295.627 29.5687 295.305 29.8911C294.982 30.1812 294.612 30.552 294.192 31.0033Z" fill="black"/>
<path d="M251.109 22.492C251.109 17.9784 251.27 14.1096 251.593 10.8856C251.69 9.91837 252.173 9.43477 253.044 9.43477C254.011 9.43477 254.494 9.91837 254.494 10.8856L254.398 11.8528C254.14 14.432 254.011 17.4464 254.011 20.8961C254.011 24.3458 254.108 26.9733 254.301 28.7788C254.688 32.3252 255.236 34.0984 255.945 34.0984C257.267 34.0984 258.315 33.7115 259.089 32.9377C259.895 32.1317 260.459 31.1645 260.781 30.0361C261.136 28.8755 261.458 27.7149 261.748 26.5542C262.425 23.8138 263.715 22.4597 265.617 22.492C267.229 22.492 268.293 23.3302 268.809 25.0067C269.26 26.4575 269.599 28.5047 269.825 31.1484C270.05 33.7599 270.421 35.0656 270.937 35.0656C271.227 35.0656 271.549 34.5981 271.904 33.6631C272.259 32.7282 272.613 31.7126 272.968 30.6165C273.355 29.4881 274.048 28.4564 275.047 27.5214C276.079 26.5865 277.32 26.119 278.771 26.119C280.319 26.119 281.463 26.7477 282.205 28.005C282.753 28.9722 283.172 30.0684 283.462 31.2935C283.785 32.5186 284.268 33.1312 284.913 33.1312C285.558 33.1312 286.122 33.0506 286.606 32.8894C287.089 32.7282 287.379 32.6476 287.476 32.6476C288.443 32.6476 288.927 33.1312 288.927 34.0984C288.927 34.8077 288.492 35.3074 287.621 35.5975C286.751 35.8877 285.8 36.0328 284.768 36.0328C283.736 36.0328 282.866 35.6943 282.156 35.0172C281.479 34.3079 281.028 33.5181 280.802 32.6476C280.577 31.7771 280.432 31.229 280.367 31.0033C280.335 30.7777 280.222 30.4553 280.029 30.0361C279.738 29.3591 279.303 29.0206 278.723 29.0206C277.756 29.0206 276.966 29.4881 276.353 30.423C275.741 31.358 275.305 32.3897 275.047 33.5181C274.79 34.6142 274.306 35.6298 273.597 36.5647C272.92 37.4997 272.114 37.9672 271.179 37.9672C270.244 37.9672 269.518 37.7576 269.002 37.3385C268.422 36.9194 268.003 36.2907 267.745 35.4525C267.262 34.0017 266.907 31.9705 266.681 29.3591C266.488 26.7154 266.133 25.3936 265.617 25.3936C265.327 25.3936 265.069 25.7966 264.844 26.6026C264.618 27.3763 264.328 28.3435 263.973 29.5042C263.651 30.6326 263.215 31.7771 262.667 32.9377C262.119 34.0661 261.265 35.0333 260.104 35.8393C258.944 36.6131 257.557 37 255.945 37C253.785 37 252.367 35.1139 251.69 31.3419C249.497 35.1139 246.563 37 242.888 37C239.986 37 237.891 35.3235 236.601 31.9705C235.312 28.6176 234.667 23.5237 234.667 16.6888C234.667 13.7549 234.812 11.5626 235.102 10.1118C235.296 9.14461 235.795 8.66101 236.601 8.66101C237.568 8.66101 238.052 9.14461 238.052 10.1118L237.955 10.5954C237.697 11.885 237.568 13.9161 237.568 16.6888C237.568 28.2952 239.342 34.0984 242.888 34.0984C245.209 34.0984 247.16 32.9216 248.74 30.5681C250.319 28.2146 251.109 25.5225 251.109 22.492Z" fill="black"/>
<path d="M209.599 35.6459C207.858 36.2262 206.504 36.5163 205.537 36.5163C204.57 36.5163 203.812 36.1617 203.264 35.4524C202.716 34.7432 202.216 33.5342 201.765 31.8254C201.346 30.1167 201.024 29.2623 200.798 29.2623C199.96 29.2623 199.073 30.5519 198.138 33.1311C197.783 34.0983 197.203 34.985 196.397 35.791C195.591 36.597 194.576 37 193.35 37C192.158 37 191.223 36.468 190.546 35.4041C189.869 34.3402 189.466 33.1795 189.337 31.9221C189.24 30.6648 189.079 29.5042 188.853 28.4402C188.627 27.3763 188.257 26.8443 187.741 26.8443C187.386 26.8443 187.128 26.9411 186.967 27.1345C186.806 27.3279 186.661 27.5214 186.532 27.7148C186.435 27.876 186.322 28.0533 186.193 28.2468C186.096 28.408 185.968 28.6337 185.806 28.9238C185.677 29.214 185.516 29.5203 185.323 29.8427C184.678 30.9711 184.162 31.8093 183.775 32.3574C183.001 33.5825 181.857 34.5175 180.342 35.1623C179.761 35.4202 179.294 35.5491 178.939 35.5491C177.972 35.5491 177.488 35.0656 177.488 34.0984C177.488 33.4858 178.004 32.9861 179.036 32.5992C180.068 32.2123 180.793 31.6642 181.212 30.955C181.663 30.2134 182.163 29.3752 182.711 28.4402C183.259 27.5053 183.63 26.8766 183.824 26.5542C184.049 26.2318 184.323 25.8449 184.646 25.3935C184.968 24.9099 185.258 24.6037 185.516 24.4747C186.193 24.1201 186.935 23.9427 187.741 23.9427C189.063 23.9427 190.062 24.4747 190.739 25.5386C191.416 26.6025 191.803 27.7632 191.9 29.0205C192.029 30.2779 192.206 31.4386 192.432 32.5025C192.657 33.5664 193.028 34.0984 193.544 34.0984C194.06 34.0984 194.543 33.6954 194.995 32.8894C195.478 32.0834 195.897 31.1967 196.252 30.2295C196.607 29.2623 197.171 28.3758 197.945 27.5698C198.751 26.7638 199.702 26.3607 200.798 26.3607C201.636 26.3607 202.249 26.5703 202.636 26.9894C203.022 27.3763 203.297 27.6826 203.458 27.9083C203.651 28.134 203.812 28.4725 203.941 28.9238C204.103 29.3752 204.215 29.7137 204.28 29.9394C204.344 30.1328 204.441 30.4875 204.57 31.0033C204.957 32.7765 205.312 33.647 205.634 33.6147C206.246 33.6147 207.036 33.4535 208.004 33.1311C208.971 32.8087 209.503 32.6475 209.599 32.6475C210.567 32.6475 211.05 33.1312 211.05 34.0984C211.05 34.8076 210.567 35.3235 209.599 35.6459Z" fill="black"/>
<path d="M169.297 38.3058C169.103 38.0479 168.523 37.3063 167.556 36.0812C166.588 34.8561 165.928 34.0017 165.573 33.5181C165.251 33.0023 164.783 32.2608 164.17 31.2936C163.107 29.6171 162.575 27.9084 162.575 26.1674C162.575 24.4265 163.042 22.8951 163.977 21.5732C164.944 20.2514 166.153 19.5905 167.604 19.5905C169.055 19.5905 170.328 20.0257 171.424 20.8962C172.521 21.7667 173.246 23.0079 173.601 24.6199C173.665 24.8778 173.697 25.1357 173.697 25.3937C173.697 26.3609 173.214 26.8445 172.247 26.8445C171.537 26.8445 171.054 26.3609 170.796 25.3937C170.344 23.4593 169.377 22.4921 167.894 22.4921C167.088 22.4921 166.476 22.8951 166.057 23.7011C165.67 24.4748 165.476 25.2486 165.476 26.0223C165.476 26.7961 165.573 27.4893 165.766 28.1018C165.992 28.7144 166.347 29.4237 166.83 30.2297C167.346 31.0034 167.765 31.616 168.088 32.0673C168.958 33.2925 170.103 34.7594 171.521 36.4681C173.649 34.8883 175.793 33.7277 177.953 32.9862C178.63 32.7605 179.017 32.6477 179.114 32.6477C180.081 32.6477 180.565 33.1313 180.565 34.0985C180.565 34.8077 180.081 35.3236 179.114 35.646C177.212 36.2585 175.229 37.3225 173.165 38.8377C174.681 41.1913 175.438 43.174 175.438 44.786C175.438 46.398 174.794 48.01 173.504 49.622C172.214 51.2663 170.812 52.0884 169.297 52.0884C167.781 52.0884 166.524 51.5725 165.525 50.5409C164.525 49.5092 164.025 48.2196 164.025 46.6721C164.025 44.2863 165.782 41.4975 169.297 38.3058ZM170.941 40.6754C168.265 43.1901 166.927 45.189 166.927 46.6721C166.927 47.4458 167.137 48.0584 167.556 48.5097C167.975 48.9611 168.539 49.1868 169.248 49.1868C169.99 49.1868 170.715 48.6548 171.424 47.5909C172.166 46.527 172.537 45.5114 172.537 44.5442C172.537 43.6093 172.005 42.3197 170.941 40.6754Z" fill="black"/>
<path d="M150.537 13.0134C151.053 13.0134 151.585 13.2552 152.133 13.7388C152.681 14.1902 152.955 14.6738 152.955 15.1896C152.955 15.6732 152.729 16.044 152.278 16.3019C151.859 16.5598 151.391 16.6888 150.875 16.6888C150.359 16.6888 149.924 16.4631 149.57 16.0117C149.247 15.5281 149.086 15.0123 149.086 14.4642C149.086 13.497 149.57 13.0134 150.537 13.0134ZM146.184 31.0033C144.379 32.9377 142.541 34.3241 140.671 35.1623C140.091 35.4202 139.624 35.5492 139.269 35.5492C138.302 35.5492 137.818 35.0656 137.818 34.0984C137.818 33.4858 138.302 32.9861 139.269 32.5992C139.785 32.4058 140.462 32.0189 141.3 31.4386C142.171 30.8583 142.751 30.423 143.041 30.1329C143.331 29.8427 143.831 29.3107 144.54 28.537C145.282 27.7632 145.862 27.1829 146.281 26.796C146.7 26.3769 147.264 25.9578 147.974 25.5387C148.715 25.1195 149.392 24.91 150.005 24.91C151.262 24.91 152.229 25.3613 152.906 26.2641C153.583 27.1668 153.986 28.1662 154.115 29.2624C154.47 32.164 155.034 33.6148 155.808 33.6148C156.421 33.6148 157.21 33.4536 158.178 33.1312C159.145 32.8088 159.677 32.6476 159.774 32.6476C160.741 32.6476 161.224 33.1312 161.224 34.0984C161.224 34.8077 160.741 35.3235 159.774 35.6459C158.033 36.2262 156.614 36.5164 155.518 36.5164C154.454 36.5164 153.583 36.065 152.906 35.1623C152.229 34.2596 151.826 33.2602 151.697 32.164C151.343 29.2624 150.779 27.8116 150.005 27.8116C149.586 27.8116 149.102 28.0856 148.554 28.6337C148.038 29.1495 147.619 29.5687 147.297 29.8911C146.974 30.1812 146.604 30.552 146.184 31.0033Z" fill="black"/>
<path d="M123.194 34.1952C123.162 34.1952 122.92 34.3241 122.469 34.5821C121.308 35.2269 120.454 35.5493 119.906 35.5493C118.939 35.5493 118.455 35.0657 118.455 34.0985C118.455 33.4859 118.939 32.9862 119.906 32.5993C120.067 32.5348 120.454 32.3414 121.067 32.019C121.679 31.6966 122.034 31.5031 122.131 31.4387C122.002 31.1485 121.937 30.7133 121.937 30.1329C121.937 27.2313 122.953 24.7489 124.984 22.6855C127.015 20.6221 128.869 19.5905 130.545 19.5905C132.222 19.5905 133.544 19.9935 134.511 20.7995C135.478 21.5732 135.962 22.5243 135.962 23.6527C135.962 24.7489 135.704 25.6999 135.188 26.5059C134.672 27.3119 133.866 28.1018 132.77 28.8756C131.254 29.9717 129.046 31.2452 126.144 32.696C127.434 33.631 129.223 34.0985 131.512 34.0985C133.801 34.0985 136.058 33.7277 138.283 32.9862C138.96 32.7605 139.347 32.6477 139.443 32.6477C140.411 32.6477 140.894 33.1313 140.894 34.0985C140.894 34.8077 140.411 35.3236 139.443 35.646C136.735 36.5487 134.124 37.0001 131.609 37.0001C128.03 37.0001 125.226 36.0651 123.194 34.1952ZM124.839 30.1329C130.32 27.3925 133.06 25.3292 133.06 23.9429C133.06 22.9757 132.254 22.4921 130.642 22.4921C129.675 22.4921 128.466 23.2658 127.015 24.8133C125.564 26.3286 124.839 28.1018 124.839 30.1329Z" fill="black"/>
<path d="M97.1265 30.5198C97.191 30.4231 97.3361 29.7299 97.5618 28.4403C97.8197 27.1507 98.1098 25.8934 98.4322 24.6683C98.7869 23.4109 99.3994 22.2503 100.27 21.1863C101.173 20.1224 102.253 19.5905 103.51 19.5905C105.96 19.5905 108.024 20.2353 109.7 21.5249C111.409 22.7822 112.263 24.4103 112.263 26.4092C112.263 28.4081 112.537 30.1974 113.085 31.7772C113.633 33.3247 114.359 34.0985 115.262 34.0985C115.874 34.0985 116.632 33.905 117.534 33.5181C118.985 32.9378 119.84 32.6477 120.098 32.6477C121.065 32.6477 121.548 33.1313 121.548 34.0985C121.548 34.8077 121.065 35.3236 120.098 35.646C118.292 36.5487 116.664 37.0001 115.213 37.0001C113.795 37.0001 112.618 36.4036 111.683 35.2107C110.748 33.9856 110.119 32.6315 109.797 31.1485C109.507 29.6655 109.362 28.0696 109.362 26.3609C109.362 25.2325 108.814 24.3136 107.717 23.6043C106.621 22.8628 105.235 22.4921 103.558 22.4921C102.204 22.4921 101.14 24.6521 100.367 28.9723C100.044 30.6488 99.8186 31.616 99.6896 31.8739C99.1415 33.0023 97.6423 34.0985 95.1921 35.1624C94.6118 35.4203 94.1443 35.5493 93.7897 35.5493C92.8225 35.5493 92.3389 35.0657 92.3389 34.0985C92.3389 33.4859 92.8225 32.9862 93.7897 32.5993C95.6918 31.8255 96.8041 31.1324 97.1265 30.5198Z" fill="black"/>
<path d="M77.6631 29.746C76.4058 29.7138 75.2935 29.4881 74.3263 29.069C73.4236 28.6821 72.7465 28.2468 72.2952 27.7632C71.1668 26.5059 70.2963 25.8772 69.6837 25.8772C68.652 25.8772 68.0072 26.3608 67.7493 27.328C67.1045 30.3586 66.3469 32.6154 65.4764 34.0984C64.348 36.0328 62.9456 37 61.2691 37C58.9156 37 56.9489 35.7749 55.3692 33.3246C53.9506 31.1323 52.6932 28.4242 51.5971 25.2002C50.7588 22.7499 50.3397 21.3636 50.3397 21.0412C50.3397 20.074 50.8233 19.5904 51.7905 19.5904C52.2419 19.5904 52.5482 19.6871 52.7094 19.8806C52.9028 20.074 53.0962 20.4448 53.2897 20.9928C54.9017 25.8611 56.0946 29.0045 56.8683 30.423C58.1902 32.8733 59.6571 34.0984 61.2691 34.0984C62.6554 34.0984 63.8805 31.6159 64.9444 26.651C65.5892 24.2007 67.1529 22.9756 69.6354 22.9756C70.5381 22.9756 71.3118 23.169 71.9566 23.5559C72.6014 23.9428 73.085 24.378 73.4074 24.8616C73.7621 25.313 74.2779 25.7482 74.955 26.1674C75.632 26.5542 76.4541 26.7799 77.4213 26.8444C77.6148 20.7188 79.7104 17.656 83.7081 17.656C85.5458 17.656 86.9644 18.188 87.9638 19.2519C88.9955 20.3158 89.5113 21.557 89.5113 22.9756C89.5113 24.3942 89.06 25.6999 88.1572 26.8928C87.0288 28.408 84.5302 29.3269 80.6614 29.6493C81.1128 30.9389 81.9027 32.0028 83.0311 32.841C84.1917 33.6793 85.2234 34.0984 86.1261 34.0984C88.3507 34.0984 90.5752 33.7276 92.7998 32.9861C93.4768 32.7604 93.8637 32.6476 93.9604 32.6476C94.9276 32.6476 95.4112 33.1312 95.4112 34.0984C95.4112 34.8077 94.9276 35.3235 93.9604 35.6459C91.2523 36.5486 88.6408 37 86.1261 37C84.5786 37 82.9021 36.323 81.0967 34.9689C79.3235 33.6148 78.179 31.8738 77.6631 29.746ZM80.3229 26.7477C83.16 26.5542 84.9655 26.0384 85.7392 25.2002C86.3196 24.5554 86.6097 23.8138 86.6097 22.9756C86.6097 21.3636 85.6425 20.5576 83.7081 20.5576C81.548 20.5576 80.4196 22.621 80.3229 26.7477Z" fill="black"/>
<path d="M27.1043 23.4593C28.0715 23.4593 28.5551 23.9429 28.5551 24.9101C28.5551 25.2969 28.4745 25.6838 28.3133 26.0707C28.1521 26.4576 28.0715 26.9251 28.0715 27.4731C28.0715 27.989 28.2327 28.5209 28.5551 29.069C28.9098 29.6171 29.4095 30.2135 30.0543 30.8583C30.6991 31.4709 31.6663 32.0029 32.9559 32.4542C34.2455 32.9056 35.5351 33.1313 36.8247 33.1313C38.1465 33.1313 39.2749 32.7927 40.2099 32.1157C41.1448 31.4387 41.6123 30.4876 41.6123 29.2625C41.6123 27.2313 41.1448 25.6032 40.2099 24.3781C39.2749 23.1207 37.9692 22.4921 36.2927 22.4921C35.519 22.4921 34.7291 22.7339 33.9231 23.2175C33.1493 23.7011 32.6496 23.9429 32.4239 23.9429C31.4567 23.9429 30.9731 23.4593 30.9731 22.4921C30.9731 21.8795 31.5212 21.2508 32.6174 20.606C33.7458 19.929 34.9709 19.5905 36.2927 19.5905C38.743 19.5905 40.7257 20.4932 42.241 22.2986C43.7563 24.0718 44.5139 26.3931 44.5139 29.2625C44.5139 31.3258 43.7402 32.9701 42.1926 34.1952C40.6774 35.4203 39.0492 36.0329 37.3083 36.0329C35.5673 36.0329 33.9714 35.8233 32.5206 35.4042C31.1021 34.9528 29.9576 34.4047 29.0871 33.7599C28.2166 33.0829 27.459 32.3575 26.8142 31.5837C25.718 30.2297 25.1699 28.9884 25.1699 27.86C25.1699 26.6994 25.3472 25.6838 25.7019 24.8133C26.0565 23.9106 26.524 23.4593 27.1043 23.4593Z" fill="black"/>
<path d="M3.38525 37C2.41805 37 1.93445 36.5164 1.93445 35.5492C1.93445 34.582 2.41805 34.0984 3.38525 34.0984C9.83325 34.0984 14.2662 33.6148 16.6842 32.6476C17.8126 32.1962 18.3768 31.7287 18.3768 31.2451C18.3768 30.7615 17.9738 30.3263 17.1678 29.9394C16.3941 29.5525 15.0722 29.0528 13.2023 28.4403C11.3646 27.8277 9.96221 27.3119 8.99501 26.8927C4.28797 24.9261 1.93445 21.9439 1.93445 17.9461C1.93445 15.3347 3.06285 13.1424 5.31965 11.3692C7.57645 9.56373 10.2846 8.66101 13.4441 8.66101C15.1851 8.66101 16.6359 9.17685 17.7965 10.2085C18.9894 11.2402 19.5858 12.4815 19.5858 13.9323C19.5858 15.3831 19.0216 16.6727 17.8932 17.8011C16.7648 18.9295 15.9911 19.4937 15.572 19.4937C14.6048 19.4937 14.1212 19.0101 14.1212 18.0429C14.1212 17.6237 14.5403 16.9951 15.3785 16.1568C16.249 15.2863 16.6842 14.6254 16.6842 14.1741C16.6842 13.4003 16.378 12.7716 15.7654 12.288C15.1851 11.8044 14.4274 11.5626 13.4925 11.5626C11.1067 11.5626 9.05949 12.1752 7.35077 13.4003C5.67429 14.5932 4.83605 16.044 4.83605 17.7527C4.83605 19.4614 5.30353 20.7994 6.23849 21.7666C7.20569 22.7338 8.28573 23.4753 9.47861 23.9911C10.7037 24.4747 11.9288 24.9261 13.154 25.3452C14.3791 25.7321 15.3946 26.0867 16.2006 26.4091C17.0389 26.6993 17.8771 27.0701 18.7154 27.5214C20.4241 28.4564 21.2785 29.6815 21.2785 31.1968C21.2785 33.1634 19.8599 34.6303 17.0228 35.5975C14.2179 36.5325 9.67205 37 3.38525 37Z" fill="black"/>
</svg>
